<?xml version="1.0" encoding="utf-8"?>
<!-- Generator: Adobe Illustrator 24.1.2, SVG Export Plug-In . SVG Version: 6.00 Build 0)  -->
<svg version="1.1" id="Layer_1" xmlns="http://www.w3.org/2000/svg" xmlns:xlink="http://www.w3.org/1999/xlink" x="0px" y="0px"
	 viewBox="0 0 53.3 46.1" style="enable-background:new 0 0 53.3 46.1;" xml:space="preserve">
<style type="text/css">
	.st0{fill:none;stroke:#556CF1;stroke-width:2;stroke-miterlimit:10;}
</style>
<g>
	<path class="st0" d="M46.1,10H35H18.5h-11c-1.1,0-2.1,0.9-2.1,2.1v3.5h13.1H35h13.1V12C48.2,10.9,47.2,10,46.1,10z"/>
	<path class="st0" d="M14.2,32.5c-0.4,1.8-2.4,2.9-4.6,2.5S6,32.8,6.4,31c0.4-1.8,0.4-1.7,4.3-0.9C14.6,30.9,14.6,30.7,14.2,32.5z
		 M10.6,30.1l3.2-14.9 M39.4,32.5c0.4,1.8,2.4,2.9,4.6,2.5s3.6-2.2,3.2-4c-0.4-1.8-0.4-1.7-4.3-0.9C39,30.9,39,30.7,39.4,32.5z
		 M42.9,30.1l-3.2-14.9"/>
	<g>
		<path class="st0" d="M40.8,9.9c-3.1-4.1-13.2-8.4-14-8.4c0.3,0,4.3,4.3,5.7,8.4"/>
		<path class="st0" d="M21.1,9.9c1.4-4.1,5.4-8.4,5.7-8.4c-0.8,0-10.8,4.3-14,8.4"/>
	</g>
	<polyline class="st0" points="23,16.2 23,44.5 30.5,44.5 30.5,16.2 	"/>
</g>
</svg>
